PathFileType	3	(X/Y/Z)	/mnt/e/Research/Bio/Osim_support/Data/PSU100/10hz/Subject7/trcs/Take_2_10hz.trc
DataRate	CameraRate	NumFrames	NumMarkers	Units	OrigDataRate	OrigDataStartFrame	OrigNumFrames
50.0	50.0	6	39	mm	50.0	2532	16876	
Frame#	Time	LFHD			RFHD			LBHD			RBHD			C7			T10			CLAV			STRN			RBAK			LSHO			LUPA			LELB			LFRM			LWRA			LWRB			LFIN			RSHO			RUPA			RELB			RFRM			RWRA			RWRB			RFIN			LASI			RASI			LPSI			RPSI			LTHI			LKNE			LTIB			LANK			LHEE			LTOE			RTHI			RKNE			RTIB			RANK			RHEE			RTOE	
	X1	Y1	Z1	X2	Y2	Z2	X3	Y3	Z3	X4	Y4	Z4	X5	Y5	Z5	X6	Y6	Z6	X7	Y7	Z7	X8	Y8	Z8	X9	Y9	Z9	X10	Y10	Z10	X11	Y11	Z11	X12	Y12	Z12	X13	Y13	Z13	X14	Y14	Z14	X15	Y15	Z15	X16	Y16	Z16	X17	Y17	Z17	X18	Y18	Z18	X19	Y19	Z19	X20	Y20	Z20	X21	Y21	Z21	X22	Y22	Z22	X23	Y23	Z23	X24	Y24	Z24	X25	Y25	Z25	X26	Y26	Z26	X27	Y27	Z27	X28	Y28	Z28	X29	Y29	Z29	X30	Y30	Z30	X31	Y31	Z31	X32	Y32	Z32	X33	Y33	Z33	X34	Y34	Z34	X35	Y35	Z35	X36	Y36	Z36	X37	Y37	Z37	X38	Y38	Z38	X39	Y39	Z39
2533	50.64000	-652.71300	1563.76000	312.02600	-564.11700	1565.33000	361.77200	-732.52400	1545.67000	480.94100	-634.38200	1543.90000	515.20600	-643.95300	1391.19000	507.99700	-651.21800	1042.73000	607.58400	-658.58400	1301.64000	384.25200	-658.38000	1134.46000	348.50000	-555.73800	1253.72000	587.10500	-842.38000	1339.81000	458.50200	-936.67800	1204.36000	444.54100	-1001.57000	1090.72000	410.83700	-988.10000	952.62900	348.64100	-935.79000	814.26900	382.02900	-986.66900	829.96900	309.35700	-919.05500	799.72800	306.46800	-493.22500	1350.28000	429.88200	-390.10800	1279.68000	313.59900	-336.44700	1255.05000	226.61700	-282.83300	1259.14000	84.94350	-345.20500	1295.67000	-67.22780	-256.07200	1294.70000	-55.78350	-280.70700	1352.62000	-61.50580	-782.79000	876.19900	409.71400	-513.52700	921.94300	428.51200	-784.34800	889.61400	568.59600	-534.34700	913.05500	601.62200	-775.60600	635.06300	361.23800	-738.94000	462.03300	345.60700	-721.69500	270.66100	425.44000	-663.04600	92.09250	491.72100	-586.77000	41.85400	578.86400	-649.88300	46.20500	315.54200	-434.51500	857.14200	351.83200	-363.18200	736.66900	184.21500	-366.17800	530.32500	225.29400	-400.94000	346.72700	267.30100	-478.25800	370.09600	317.41900	-440.55700	171.91800	143.06900
2534	50.66000	-662.45700	1557.64000	311.95600	-568.65800	1558.67000	355.12300	-724.79500	1537.95000	488.77900	-624.05200	1536.80000	513.95900	-636.20400	1383.63000	507.37200	-639.40500	1034.42000	603.30400	-655.49400	1294.53000	383.61500	-656.20200	1127.22000	346.53000	-544.76700	1245.27000	581.77300	-835.95700	1332.96000	464.54100	-934.06600	1202.43000	449.94000	-1003.41000	1092.37000	413.80700	-996.76800	954.34000	349.62800	-950.62500	813.07900	381.04100	-1001.47000	832.22600	308.50000	-938.07000	789.53200	304.18300	-489.73300	1344.45000	423.72600	-394.12400	1275.88000	300.99000	-346.93100	1252.39000	210.17700	-305.43800	1260.78000	64.58490	-380.90800	1307.32000	-78.15570	-291.55400	1299.98000	-77.39180	-311.50400	1359.70000	-81.60060	-778.65800	868.12300	410.67700	-508.92800	910.38800	417.55600	-774.64800	883.50800	571.98000	-523.15400	903.68000	591.02900	-774.81100	628.22600	358.32600	-740.50900	457.11400	338.90600	-723.22000	269.17800	422.06500	-663.90900	92.05820	492.62400	-586.89200	41.99780	578.92700	-649.88000	45.93790	315.74900	-442.10400	819.74400	332.28900	-388.55900	671.75800	179.52400	-380.00100	465.38600	232.39500	-405.54500	282.27500	285.85000	-474.15800	308.68400	344.51200	-459.67900	101.90300	175.48600
2535	50.68000	-669.68000	1551.08000	314.49500	-571.75600	1552.18000	347.03000	-711.93400	1530.56000	497.26300	-608.84600	1529.56000	510.91600	-625.03900	1376.02000	505.48400	-624.17400	1025.61000	597.56300	-651.06600	1286.80000	382.54400	-654.98500	1121.69000	343.32400	-529.80300	1236.11000	573.23600	-826.77400	1326.98000	473.31400	-929.32800	1202.23000	459.06800	-1003.64000	1096.13000	420.74400	-1006.42000	960.28600	352.23500	-966.57100	815.98300	378.14300	-1019.20000	840.14200	307.26400	-961.13000	784.45900	299.95600	-485.08300	1338.25000	413.88100	-400.09300	1272.24000	283.70300	-361.18700	1250.34000	188.84800	-335.48200	1264.90000	40.32090	-425.20400	1324.12000	-88.33680	-337.88700	1310.50000	-100.44200	-352.37800	1371.43000	-102.98600	-775.62800	861.50800	412.62400	-505.45600	899.44600	402.70300	-762.33300	877.05300	574.76900	-509.64200	894.07200	576.53700	-773.01400	624.03300	356.22100	-739.53900	452.68800	331.73300	-722.12500	267.32400	417.36000	-663.85500	92.16470	492.59400	-586.73000	42.11170	578.92400	-649.90700	45.73860	315.87900	-448.47500	787.22600	313.89300	-412.11800	620.71000	175.35800	-390.99000	417.51900	239.27200	-405.63100	237.07200	304.56400	-466.95200	263.12900	369.68400	-469.94700	52.60820	208.69900
2536	50.70000	-674.23400	1546.32000	318.43600	-573.27700	1546.60000	338.77500	-694.53200	1523.93000	505.06600	-590.19200	1522.09000	505.68800	-611.11900	1368.97000	501.10600	-606.58800	1017.94000	589.80600	-646.07100	1279.85000	380.04600	-657.33900	1118.94000	337.85400	-511.83600	1227.19000	559.54400	-814.50600	1322.56000	482.74100	-922.13600	1204.60000	470.80400	-1003.08000	1103.71000	431.15200	-1017.85000	971.51500	356.67000	-985.20400	825.23800	374.51900	-1040.53000	853.39800	306.45400	-991.63000	785.38700	296.15000	-479.39100	1332.51000	400.94000	-408.43600	1268.66000	262.40500	-380.00000	1248.14000	163.73100	-373.14400	1269.86000	15.07790	-477.29000	1342.36000	-94.14960	-395.39500	1324.50000	-121.37300	-405.18800	1385.52000	-122.24400	-770.75700	855.21300	414.01900	-501.55100	890.16200	387.44700	-748.39800	871.48900	575.11900	-495.66600	886.58000	561.04500	-769.05900	619.48000	353.86100	-736.55000	448.81100	324.88100	-720.09500	265.63200	412.60600	-663.51500	92.37650	492.23800	-586.52700	42.20150	578.89000	-650.09600	45.68660	315.99300	-454.22600	763.67000	297.49600	-430.88400	586.50500	169.48700	-397.29600	389.71000	245.30000	-400.05400	213.63900	323.25700	-450.36000	233.98300	401.45700	-472.33100	35.37840	228.80600
2537	50.72000	-678.10000	1543.85000	321.39200	-574.93800	1542.98000	329.26300	-674.67500	1519.98000	508.88000	-570.97900	1517.55000	497.07900	-596.20900	1364.56000	494.66400	-587.54300	1013.15000	580.50300	-640.78200	1275.01000	376.84300	-656.49700	1116.54000	333.72300	-493.55100	1221.49000	544.57200	-800.17100	1320.43000	490.17900	-912.54000	1210.26000	481.39100	-1000.79000	1115.87000	441.03600	-1030.92000	988.12000	360.86300	-1008.36000	838.66100	368.26800	-1065.75000	874.14700	306.75000	-1028.94000	798.57400	292.34100	-473.83000	1329.14000	385.93300	-419.06200	1266.18000	241.13100	-402.28600	1246.60000	139.43000	-416.54800	1275.43000	-6.10662	-533.32000	1358.97000	-91.15240	-460.75400	1338.02000	-133.83200	-465.73800	1400.09000	-133.23900	-763.58300	851.39600	416.04100	-496.40100	883.74900	371.19900	-731.22500	867.93400	574.54100	-479.54900	881.31000	544.78300	-764.61000	616.75700	353.78500	-734.37000	446.46300	320.95500	-718.85900	264.66100	410.04100	-662.90700	92.75750	492.23700	-586.20200	42.24860	578.78500	-650.14100	45.50640	315.83200	-452.75900	748.01200	281.52700	-440.47300	564.13300	161.06800	-397.81800	372.91600	242.78500	-389.15600	201.81500	330.31300	-429.55000	217.67300	417.17400	-469.97000	30.59560	239.10600
2538	50.74000	-681.56800	1542.15000	324.31100	-578.93700	1541.84000	317.80500	-653.00200	1519.68000	509.31100	-552.13000	1517.44000	484.00000	-580.23200	1363.39000	486.45100	-565.85900	1011.43000	569.27600	-635.79400	1274.69000	372.41800	-652.75800	1115.86000	329.92500	-474.45100	1219.98000	527.44400	-782.83100	1321.31000	497.23800	-899.45500	1219.21000	492.63600	-995.25000	1133.05000	451.76400	-1043.29000	1014.16000	365.41300	-1032.44000	863.89400	359.72200	-1092.39000	906.73500	306.40000	-1069.05000	822.94400	286.85500	-468.49400	1329.25000	369.13200	-430.55500	1267.26000	219.42900	-426.70500	1247.95000	115.95300	-462.81600	1282.79000	-22.53960	-589.02700	1374.77000	-80.25830	-528.08200	1353.04000	-136.88300	-529.39800	1415.69000	-134.50600	-753.45400	850.70900	417.10400	-490.26100	880.57400	354.32400	-710.04000	867.10300	570.70000	-460.90800	879.04400	526.55400	-757.38900	616.44500	353.98200	-730.82400	445.83300	319.35800	-717.43500	264.80100	409.72800	-661.70400	93.28750	492.62900	-585.75900	42.07620	578.75700	-650.21200	45.54260	315.85700	-449.47900	731.18100	266.27000	-448.20300	541.10800	155.18500	-394.27700	353.61600	235.36800	-371.32800	188.35800	330.35500	-397.19500	200.10800	424.11700	-468.85400	31.21550	247.94800
